<svg xmlns="http://www.w3.org/2000/svg" viewBox="0 0 800 500" font-family="Arial, Helvetica, sans-serif">
  <!-- browser bar -->
  <rect width="800" height="36" fill="#e8ecf0"/>
  <circle cx="20" cy="18" r="5" fill="#ff5f57"/>
  <circle cx="38" cy="18" r="5" fill="#febc2e"/>
  <circle cx="56" cy="18" r="5" fill="#28c840"/>
  <rect x="80" y="8" width="640" height="20" rx="10" fill="#ffffff"/>
  <text x="95" y="22" font-size="12" fill="#8a97a3">protectyourhome — Film solaire · Suisse</text>
  <!-- site -->
  <rect y="36" width="800" height="464" fill="#0d0d0d"/>
  <!-- nav -->
  <rect x="30" y="56" width="26" height="26" rx="6" fill="#d4a72c"/>
  <text x="38" y="74" font-size="13">🏠</text>
  <text x="66" y="75" font-size="14" font-weight="bold" fill="#ffffff">PROTECT<tspan fill="#d4a72c">YOUR</tspan>HOME</text>
  <rect x="640" y="54" width="130" height="30" rx="8" fill="#d4a72c"/>
  <text x="705" y="74" font-size="12" font-weight="bold" fill="#111111" text-anchor="middle">Devis gratuit →</text>
  <!-- badge -->
  <rect x="30" y="120" width="270" height="30" rx="15" fill="none" stroke="#d4a72c" stroke-opacity=".6"/>
  <text x="45" y="140" font-size="12" fill="#d4a72c">🇨🇭 EXPERT À SION &amp; TOUTE LA SUISSE</text>
  <!-- headline -->
  <text x="30" y="215" font-size="52" font-weight="bold" fill="#ffffff">FILM</text>
  <text x="30" y="272" font-size="52" font-weight="bold" fill="#d4a72c">SOLAIRE</text>
  <text x="30" y="329" font-size="44" font-weight="bold" fill="#ffffff">PROFESSIONNEL</text>
  <text x="30" y="365" font-size="15" fill="#c9c9c9">Protégez votre maison contre la chaleur, les UV</text>
  <text x="30" y="387" font-size="15" fill="#c9c9c9">et les intrusions — film discret, durable, garanti.</text>
  <!-- buttons -->
  <rect x="30" y="410" width="220" height="42" rx="10" fill="#d4a72c"/>
  <text x="140" y="437" font-size="14" font-weight="bold" fill="#111111" text-anchor="middle">Demander un devis gratuit</text>
  <rect x="266" y="410" width="140" height="42" rx="10" fill="none" stroke="#666666"/>
  <text x="336" y="437" font-size="14" fill="#ffffff" text-anchor="middle">Voir le résultat</text>
  <!-- deco house -->
  <rect x="480" y="180" width="290" height="270" rx="12" fill="#1a1a1a"/>
  <rect x="500" y="210" width="120" height="90" fill="#2b2b20"/>
  <rect x="640" y="210" width="110" height="90" fill="#232323"/>
  <rect x="500" y="320" width="250" height="100" fill="#1f1f18"/>
  <text x="510" y="470" font-size="12" fill="#d4a72c">🛡️ Garantie 10 ans · Devis gratuit</text>
</svg>
