<svg xmlns="http://www.w3.org/2000/svg" viewBox="0 0 800 500" font-family="Arial, Helvetica, sans-serif">
  <!-- browser bar -->
  <rect width="800" height="36" fill="#e8ecf0"/>
  <circle cx="20" cy="18" r="5" fill="#ff5f57"/>
  <circle cx="38" cy="18" r="5" fill="#febc2e"/>
  <circle cx="56" cy="18" r="5" fill="#28c840"/>
  <rect x="80" y="8" width="640" height="20" rx="10" fill="#ffffff"/>
  <text x="95" y="22" font-size="12" fill="#8a97a3">simplefacture.fr — Facturation en ligne</text>
  <!-- site -->
  <rect y="36" width="800" height="464" fill="#0b0f1a"/>
  <!-- nav -->
  <text x="30" y="76" font-size="15" font-weight="bold" fill="#ffffff">Simple<tspan fill="#3b82f6">Facture</tspan></text>
  <text x="600" y="76" font-size="13" fill="#c3cbd8">Se connecter</text>
  <rect x="695" y="56" width="80" height="30" rx="8" fill="#2563eb"/>
  <text x="735" y="76" font-size="12" font-weight="bold" fill="#ffffff" text-anchor="middle">S'inscrire</text>
  <!-- badge -->
  <rect x="30" y="118" width="300" height="28" rx="14" fill="#111827" stroke="#2b3a55"/>
  <circle cx="48" cy="132" r="4" fill="#3b82f6"/>
  <text x="60" y="136" font-size="11" fill="#93b4f0">100% GRATUIT · SANS CARTE BANCAIRE</text>
  <!-- headline -->
  <text x="30" y="205" font-size="44" font-weight="bold" fill="#f3f4f6">La Solution Gratuite</text>
  <text x="30" y="257" font-size="44" font-weight="bold" fill="#93a3bb">Pour Gérer Vos Factures</text>
  <text x="30" y="309" font-size="44" font-weight="bold" fill="#f3f4f6">En Ligne</text>
  <line x1="30" y1="330" x2="560" y2="330" stroke="#1f2937"/>
  <text x="30" y="362" font-size="15" fill="#aab4c4">Créez, envoyez et suivez vos factures en quelques clics.</text>
  <text x="30" y="384" font-size="15" fill="#aab4c4">Devis, relances automatiques, signature électronique.</text>
  <!-- buttons -->
  <rect x="30" y="412" width="210" height="44" rx="10" fill="#2563eb"/>
  <text x="135" y="440" font-size="14" font-weight="bold" fill="#ffffff" text-anchor="middle">S'inscrire gratuitement</text>
  <text x="270" y="440" font-size="14" fill="#c3cbd8">Se connecter</text>
  <!-- deco : facture -->
  <rect x="590" y="150" width="180" height="230" rx="10" fill="#101827" stroke="#22304a"/>
  <rect x="608" y="172" width="90" height="10" rx="5" fill="#2b3a55"/>
  <rect x="608" y="196" width="144" height="8" rx="4" fill="#1d2a42"/>
  <rect x="608" y="212" width="144" height="8" rx="4" fill="#1d2a42"/>
  <rect x="608" y="228" width="110" height="8" rx="4" fill="#1d2a42"/>
  <rect x="608" y="258" width="144" height="8" rx="4" fill="#1d2a42"/>
  <rect x="608" y="274" width="144" height="8" rx="4" fill="#1d2a42"/>
  <rect x="608" y="304" width="70" height="12" rx="6" fill="#16a34a"/>
  <text x="643" y="313" font-size="9" fill="#ffffff" text-anchor="middle">PAYÉE</text>
  <rect x="608" y="340" width="144" height="24" rx="8" fill="#2563eb"/>
  <text x="680" y="356" font-size="11" font-weight="bold" fill="#ffffff" text-anchor="middle">PDF en 1 clic</text>
</svg>
